<svg width="75" height="19" viewBox="0 0 75 19" fill="none" xmlns="http://www.w3.org/2000/svg">
<path fill-rule="evenodd" clip-rule="evenodd" d="M74.9999 9.34011V9.21038H71.632V9.34011V9.37004C71.632 12.7029 68.8994 15.4072 65.5316 15.4072C62.1637 15.4072 59.4311 12.7029 59.4311 9.37004C59.4311 6.03714 62.1637 3.3329 65.5316 3.3329H65.6324V0H65.5316C60.3084 0 56.0633 4.20105 56.0633 9.37004C56.0633 14.539 60.3084 18.7401 65.5316 18.7401C70.7548 18.7401 74.9999 14.539 74.9999 9.37004V9.34011ZM31.2482 0.339203L25.1578 18.4007H28.6366L29.3222 16.3751C29.4231 16.0857 29.5945 15.906 29.9676 15.906H35.5336C35.9067 15.906 36.0882 16.0857 36.1789 16.3751L36.8646 18.4007H40.3434L34.253 0.339203H31.2482ZM34.4244 12.7627H31.0667C30.7137 12.7627 30.5121 12.5532 30.6331 12.194L32.3977 6.94513C32.559 6.47613 32.9523 6.47613 33.1035 6.94513L34.8479 12.194C34.979 12.5731 34.7774 12.7627 34.4244 12.7627ZM50.6591 11.216C50.9515 11.7748 51.4053 11.6551 51.4053 11.0364V0.339203H54.763V18.3908H50.6994L44.9015 7.5239C44.6091 6.96509 44.1553 7.08484 44.1553 7.70352V18.4007H40.7975V0.339203H45.0628L50.6591 11.216ZM17.2331 14.6088V0.339203H13.8753V18.4007H24.6645V15.2475H17.8885C17.5053 15.2574 17.2331 14.978 17.2331 14.6088ZM12.0194 5.3186C12.0194 6.84535 11.3539 8.09269 10.1943 8.9309C11.5757 9.84895 12.4026 11.4056 12.4026 13.1519C12.4026 16.1855 10.2145 18.4007 7.29029 18.4007H0V0.339203H6.92729C10.0733 0.339203 12.0194 2.38485 12.0194 5.3186ZM3.83169 3.31287C3.53927 3.31287 3.35777 3.49249 3.35777 3.78187V7.21456C3.35777 7.49396 3.53927 7.70352 3.83169 7.70352H6.3122C7.56254 7.70352 8.44988 6.75554 8.44988 5.50819C8.44988 4.28081 7.57263 3.31287 6.3122 3.31287H3.83169ZM3.87202 15.3872H6.36262C7.84488 15.3872 8.76247 14.3593 8.77255 13.0122C8.77255 11.685 7.84488 10.6772 6.3727 10.6772H3.87202C3.56952 10.6772 3.35777 10.8967 3.35777 11.2061V14.8782C3.35777 15.1776 3.5796 15.3872 3.87202 15.3872Z" fill="#222222"/>
</svg>
